<mxfile host="app.diagrams.net" modified="2022-12-15T01:01:30.288Z" agent="5.0 (Windows NT 10.0; Win64; x64) AppleWebKit/537.36 (KHTML, like Gecko) Chrome/108.0.0.0 Safari/537.36" version="20.6.1" etag="V0Sxjr-KCiTi17GDEVNE" type="github">
  <diagram id="pKQdi-eeRK9SxtTKxeUM" name="Page-1">
    <mxGraphModel dx="1422" dy="-395" grid="0" gridSize="10" guides="1" tooltips="1" connect="1" arrows="1" fold="1" page="1" pageScale="1" pageWidth="850" pageHeight="1100" math="0" shadow="0">
      <root>
        <mxCell id="0" />
        <mxCell id="1" parent="0" />
        <mxCell id="KWq_b9gpajZcSFFpdgU--8" value="" style="rounded=1;whiteSpace=wrap;html=1;fillColor=#f5f5f5;fontColor=#333333;strokeColor=#666666;" vertex="1" parent="1">
          <mxGeometry x="39" y="1161" width="765" height="60" as="geometry" />
        </mxCell>
        <mxCell id="KWq_b9gpajZcSFFpdgU--9" value="System Top-Level Functions" style="text;html=1;strokeColor=none;fillColor=none;align=center;verticalAlign=middle;whiteSpace=wrap;rounded=0;" vertex="1" parent="1">
          <mxGeometry x="42" y="1131" width="187" height="30" as="geometry" />
        </mxCell>
        <mxCell id="KWq_b9gpajZcSFFpdgU--12" value="Identify mis-pull" style="rounded=1;whiteSpace=wrap;html=1;" vertex="1" parent="1">
          <mxGeometry x="75" y="1180" width="100" height="36" as="geometry" />
        </mxCell>
        <mxCell id="KWq_b9gpajZcSFFpdgU--13" value="1.0" style="text;html=1;strokeColor=none;fillColor=none;align=center;verticalAlign=middle;whiteSpace=wrap;rounded=0;" vertex="1" parent="1">
          <mxGeometry x="64" y="1157" width="60" height="30" as="geometry" />
        </mxCell>
        <mxCell id="KWq_b9gpajZcSFFpdgU--15" value="2.0" style="text;html=1;strokeColor=none;fillColor=none;align=center;verticalAlign=middle;whiteSpace=wrap;rounded=0;" vertex="1" parent="1">
          <mxGeometry x="251" y="1157" width="60" height="30" as="geometry" />
        </mxCell>
        <mxCell id="KWq_b9gpajZcSFFpdgU--16" value="Provide location information to user" style="rounded=1;whiteSpace=wrap;html=1;" vertex="1" parent="1">
          <mxGeometry x="264" y="1180" width="206" height="36" as="geometry" />
        </mxCell>
        <mxCell id="KWq_b9gpajZcSFFpdgU--17" value="3.0" style="text;html=1;strokeColor=none;fillColor=none;align=center;verticalAlign=middle;whiteSpace=wrap;rounded=0;" vertex="1" parent="1">
          <mxGeometry x="557" y="1157" width="60" height="30" as="geometry" />
        </mxCell>
        <mxCell id="KWq_b9gpajZcSFFpdgU--18" value="Maintain historical data" style="rounded=1;whiteSpace=wrap;html=1;" vertex="1" parent="1">
          <mxGeometry x="585" y="1180" width="206" height="36" as="geometry" />
        </mxCell>
        <mxCell id="KWq_b9gpajZcSFFpdgU--23" value="" style="rounded=1;whiteSpace=wrap;html=1;fillColor=#f5f5f5;fontColor=#333333;strokeColor=#666666;" vertex="1" parent="1">
          <mxGeometry x="45" y="1258" width="765" height="60" as="geometry" />
        </mxCell>
        <mxCell id="KWq_b9gpajZcSFFpdgU--24" value="Second Level Functions" style="text;html=1;strokeColor=none;fillColor=none;align=center;verticalAlign=middle;whiteSpace=wrap;rounded=0;" vertex="1" parent="1">
          <mxGeometry x="48" y="1228" width="187" height="30" as="geometry" />
        </mxCell>
        <mxCell id="KWq_b9gpajZcSFFpdgU--25" value="Identify the tractor ID" style="rounded=1;whiteSpace=wrap;html=1;" vertex="1" parent="1">
          <mxGeometry x="81" y="1277" width="142" height="36" as="geometry" />
        </mxCell>
        <mxCell id="KWq_b9gpajZcSFFpdgU--26" value="1.1" style="text;html=1;strokeColor=none;fillColor=none;align=center;verticalAlign=middle;whiteSpace=wrap;rounded=0;" vertex="1" parent="1">
          <mxGeometry x="70" y="1254" width="60" height="30" as="geometry" />
        </mxCell>
        <mxCell id="KWq_b9gpajZcSFFpdgU--27" value="1.2" style="text;html=1;strokeColor=none;fillColor=none;align=center;verticalAlign=middle;whiteSpace=wrap;rounded=0;" vertex="1" parent="1">
          <mxGeometry x="307" y="1254" width="60" height="30" as="geometry" />
        </mxCell>
        <mxCell id="KWq_b9gpajZcSFFpdgU--28" value="Identify the trailer ID" style="rounded=1;whiteSpace=wrap;html=1;" vertex="1" parent="1">
          <mxGeometry x="308" y="1277" width="206" height="36" as="geometry" />
        </mxCell>
        <mxCell id="KWq_b9gpajZcSFFpdgU--29" value="1.3" style="text;html=1;strokeColor=none;fillColor=none;align=center;verticalAlign=middle;whiteSpace=wrap;rounded=0;" vertex="1" parent="1">
          <mxGeometry x="614" y="1254" width="60" height="30" as="geometry" />
        </mxCell>
        <mxCell id="KWq_b9gpajZcSFFpdgU--30" value="Compare ID combination" style="rounded=1;whiteSpace=wrap;html=1;" vertex="1" parent="1">
          <mxGeometry x="619" y="1275" width="172" height="36" as="geometry" />
        </mxCell>
        <mxCell id="KWq_b9gpajZcSFFpdgU--33" value="" style="rounded=1;whiteSpace=wrap;html=1;fillColor=#f5f5f5;fontColor=#333333;strokeColor=#666666;" vertex="1" parent="1">
          <mxGeometry x="45" y="1348" width="765" height="60" as="geometry" />
        </mxCell>
        <mxCell id="KWq_b9gpajZcSFFpdgU--34" value="Third Level Functions" style="text;html=1;strokeColor=none;fillColor=none;align=center;verticalAlign=middle;whiteSpace=wrap;rounded=0;" vertex="1" parent="1">
          <mxGeometry x="48" y="1318" width="187" height="30" as="geometry" />
        </mxCell>
        <mxCell id="KWq_b9gpajZcSFFpdgU--35" value="Request trailer serial number" style="rounded=1;whiteSpace=wrap;html=1;" vertex="1" parent="1">
          <mxGeometry x="81" y="1367" width="181" height="36" as="geometry" />
        </mxCell>
        <mxCell id="KWq_b9gpajZcSFFpdgU--36" value="1.2.1" style="text;html=1;strokeColor=none;fillColor=none;align=center;verticalAlign=middle;whiteSpace=wrap;rounded=0;" vertex="1" parent="1">
          <mxGeometry x="70" y="1344" width="60" height="30" as="geometry" />
        </mxCell>
        <mxCell id="KWq_b9gpajZcSFFpdgU--37" value="1.2.2" style="text;html=1;strokeColor=none;fillColor=none;align=center;verticalAlign=middle;whiteSpace=wrap;rounded=0;" vertex="1" parent="1">
          <mxGeometry x="268" y="1344" width="60" height="30" as="geometry" />
        </mxCell>
        <mxCell id="KWq_b9gpajZcSFFpdgU--38" value="Reply unique trailer serial number" style="rounded=1;whiteSpace=wrap;html=1;" vertex="1" parent="1">
          <mxGeometry x="307" y="1367" width="207" height="36" as="geometry" />
        </mxCell>
        <mxCell id="KWq_b9gpajZcSFFpdgU--39" value="1.2.3" style="text;html=1;strokeColor=none;fillColor=none;align=center;verticalAlign=middle;whiteSpace=wrap;rounded=0;" vertex="1" parent="1">
          <mxGeometry x="561" y="1344" width="60" height="30" as="geometry" />
        </mxCell>
        <mxCell id="KWq_b9gpajZcSFFpdgU--40" value="Broadcast trailer SN for telematics unit" style="rounded=1;whiteSpace=wrap;html=1;" vertex="1" parent="1">
          <mxGeometry x="558" y="1367" width="233" height="36" as="geometry" />
        </mxCell>
        <mxCell id="KWq_b9gpajZcSFFpdgU--43" value="" style="endArrow=classic;html=1;rounded=0;entryX=0;entryY=0.5;entryDx=0;entryDy=0;exitX=1.007;exitY=0.6;exitDx=0;exitDy=0;exitPerimeter=0;" edge="1" parent="1" source="KWq_b9gpajZcSFFpdgU--57" target="KWq_b9gpajZcSFFpdgU--16">
          <mxGeometry width="50" height="50" relative="1" as="geometry">
            <mxPoint x="176" y="1198" as="sourcePoint" />
            <mxPoint x="449" y="1336" as="targetPoint" />
          </mxGeometry>
        </mxCell>
        <mxCell id="KWq_b9gpajZcSFFpdgU--44" value="" style="endArrow=classic;html=1;rounded=0;exitX=1;exitY=0.5;exitDx=0;exitDy=0;entryX=0;entryY=0.5;entryDx=0;entryDy=0;" edge="1" parent="1" source="KWq_b9gpajZcSFFpdgU--16" target="KWq_b9gpajZcSFFpdgU--18">
          <mxGeometry width="50" height="50" relative="1" as="geometry">
            <mxPoint x="399" y="1386" as="sourcePoint" />
            <mxPoint x="449" y="1336" as="targetPoint" />
          </mxGeometry>
        </mxCell>
        <mxCell id="KWq_b9gpajZcSFFpdgU--46" value="" style="curved=1;endArrow=classic;html=1;rounded=0;exitX=0;exitY=0.5;exitDx=0;exitDy=0;entryX=0;entryY=0.5;entryDx=0;entryDy=0;" edge="1" parent="1" source="KWq_b9gpajZcSFFpdgU--57" target="KWq_b9gpajZcSFFpdgU--25">
          <mxGeometry width="50" height="50" relative="1" as="geometry">
            <mxPoint x="61" y="1193" as="sourcePoint" />
            <mxPoint x="78" y="1297" as="targetPoint" />
            <Array as="points">
              <mxPoint x="17" y="1225" />
              <mxPoint x="37" y="1289" />
            </Array>
          </mxGeometry>
        </mxCell>
        <mxCell id="KWq_b9gpajZcSFFpdgU--49" value="" style="endArrow=classic;html=1;rounded=0;exitX=1;exitY=0.5;exitDx=0;exitDy=0;" edge="1" parent="1" source="KWq_b9gpajZcSFFpdgU--25" target="KWq_b9gpajZcSFFpdgU--58">
          <mxGeometry width="50" height="50" relative="1" as="geometry">
            <mxPoint x="399" y="1486" as="sourcePoint" />
            <mxPoint x="279.932" y="1295.987" as="targetPoint" />
          </mxGeometry>
        </mxCell>
        <mxCell id="KWq_b9gpajZcSFFpdgU--50" value="" style="endArrow=classic;html=1;rounded=0;entryX=0;entryY=0.5;entryDx=0;entryDy=0;" edge="1" parent="1" source="KWq_b9gpajZcSFFpdgU--58" target="KWq_b9gpajZcSFFpdgU--30">
          <mxGeometry width="50" height="50" relative="1" as="geometry">
            <mxPoint x="541" y="1293" as="sourcePoint" />
            <mxPoint x="449" y="1436" as="targetPoint" />
          </mxGeometry>
        </mxCell>
        <mxCell id="KWq_b9gpajZcSFFpdgU--51" value="" style="curved=1;endArrow=classic;html=1;rounded=0;exitX=0.5;exitY=1;exitDx=0;exitDy=0;entryX=0.444;entryY=0.028;entryDx=0;entryDy=0;entryPerimeter=0;" edge="1" parent="1" source="KWq_b9gpajZcSFFpdgU--58" target="KWq_b9gpajZcSFFpdgU--35">
          <mxGeometry width="50" height="50" relative="1" as="geometry">
            <mxPoint x="383" y="1337" as="sourcePoint" />
            <mxPoint x="449" y="1436" as="targetPoint" />
            <Array as="points">
              <mxPoint x="278" y="1348" />
              <mxPoint x="161" y="1334" />
            </Array>
          </mxGeometry>
        </mxCell>
        <mxCell id="KWq_b9gpajZcSFFpdgU--52" value="" style="endArrow=classic;html=1;rounded=0;exitX=1;exitY=0.5;exitDx=0;exitDy=0;entryX=0;entryY=0.5;entryDx=0;entryDy=0;" edge="1" parent="1" source="KWq_b9gpajZcSFFpdgU--35" target="KWq_b9gpajZcSFFpdgU--38">
          <mxGeometry width="50" height="50" relative="1" as="geometry">
            <mxPoint x="399" y="1486" as="sourcePoint" />
            <mxPoint x="449" y="1436" as="targetPoint" />
          </mxGeometry>
        </mxCell>
        <mxCell id="KWq_b9gpajZcSFFpdgU--53" value="" style="endArrow=classic;html=1;rounded=0;entryX=0;entryY=0.5;entryDx=0;entryDy=0;" edge="1" parent="1" source="KWq_b9gpajZcSFFpdgU--38" target="KWq_b9gpajZcSFFpdgU--40">
          <mxGeometry width="50" height="50" relative="1" as="geometry">
            <mxPoint x="563" y="1387" as="sourcePoint" />
            <mxPoint x="258" y="1395" as="targetPoint" />
          </mxGeometry>
        </mxCell>
        <mxCell id="KWq_b9gpajZcSFFpdgU--57" value="" style="ellipse;whiteSpace=wrap;html=1;dashed=1;fillColor=none;" vertex="1" parent="1">
          <mxGeometry x="57" y="1151" width="136" height="80" as="geometry" />
        </mxCell>
        <mxCell id="KWq_b9gpajZcSFFpdgU--58" value="" style="ellipse;whiteSpace=wrap;html=1;dashed=1;fillColor=none;" vertex="1" parent="1">
          <mxGeometry x="288" y="1245" width="256" height="96" as="geometry" />
        </mxCell>
      </root>
    </mxGraphModel>
  </diagram>
</mxfile>
